PathFileType	3	(X/Y/Z)	running_1__view2_aligned.trc
DataRate	CameraRate	NumFrames	NumMarkers	Units	OrigDataRate	OrigDataStartFrame	OrigNumFrames
100.0	100.0	9	19	mm	100.0	5018	6426
Frame#	Time	pelvis			neck			head			hip_left			hip_right			knee_left			knee_right			ankle_left			ankle_right			heel_left			heel_right			toe_left			toe_right			shoulder_left			shoulder_right			elbow_left			elbow_right			wrist_left			wrist_right			
		X1	Y1	Z1	X2	Y2	Z2	X3	Y3	Z3	X4	Y4	Z4	X5	Y5	Z5	X6	Y6	Z6	X7	Y7	Z7	X8	Y8	Z8	X9	Y9	Z9	X10	Y10	Z10	X11	Y11	Z11	X12	Y12	Z12	X13	Y13	Z13	X14	Y14	Z14	X15	Y15	Z15	X16	Y16	Z16	X17	Y17	Z17	X18	Y18	Z18	X19	Y19	Z19	
5018	50.17000	10.276365	938.751155	134.433844	24.920809	1485.279249	250.328959	19.043073	1578.779922	394.428291	84.230841	938.387449	135.393022	-63.678528	939.114955	133.474609	107.503388	529.010817	299.461544	-99.877894	512.165636	155.045421	105.818265	202.632950	124.839669	-100.845241	215.493533	-123.960625	101.840666	171.992639	83.565924	-94.944853	199.551768	-175.476409	107.827131	110.444182	256.261585	-119.510020	72.465339	-36.735124	172.946427	1443.492366	165.475051	-144.546366	1445.668492	229.068974	248.880132	1243.082556	-29.652430	-223.586955	1168.877966	204.691436	319.127540	1044.832352	141.793878	-66.183208	1132.832237	395.014803
5019	50.18000	12.497258	937.225500	134.389311	28.359541	1483.679318	250.456489	22.864037	1577.474006	394.369271	86.460774	936.851398	135.402315	-61.466721	937.599708	133.376244	109.136404	527.750447	304.709997	-99.272916	510.990313	153.993016	107.753642	197.238019	135.658343	-100.819492	220.083080	-136.457360	104.036194	165.188522	94.909522	-94.663441	205.953455	-188.968863	109.203507	109.489607	271.464384	-120.607743	71.892166	-54.102813	176.000956	1441.562649	164.680072	-141.481874	1444.114391	230.087966	251.740579	1241.948399	-32.311435	-221.270214	1166.189896	207.797153	324.996467	1041.136246	139.774252	-62.148886	1131.860069	398.354448
5020	50.19000	14.946363	937.488407	133.970913	31.286148	1483.940818	250.842074	25.597774	1577.633865	394.744074	88.887095	937.146704	135.008689	-58.994762	937.830197	132.933083	111.038155	528.057581	303.242182	-98.437569	512.177629	155.647938	109.768957	192.083515	139.383565	-101.133324	223.198399	-136.876664	106.130122	158.685268	98.893718	-94.901938	209.691917	-189.567782	110.942145	106.961397	279.684759	-122.079185	73.559364	-56.244669	179.266304	1441.285267	165.876498	-138.418707	1445.183821	229.947209	254.754598	1240.694160	-28.888950	-219.533121	1168.847549	205.510723	324.511806	1043.191817	143.481871	-61.677302	1133.099436	395.907549
5021	50.20000	17.395468	937.751314	133.552515	34.212755	1484.202318	251.227658	28.331510	1577.793724	395.118877	91.313415	937.442010	134.615063	-56.522803	938.060686	132.489921	112.939906	528.364715	301.774368	-97.602221	513.364944	157.302860	111.784273	186.929011	143.108787	-101.447157	226.313717	-137.295968	108.224050	152.182014	102.877913	-95.140436	213.430379	-190.166700	112.680783	104.433187	287.905133	-123.550627	75.226561	-58.386524	182.531653	1441.007884	167.072924	-135.355540	1446.253252	229.806453	257.768618	1239.439921	-25.466466	-217.796028	1171.505203	203.224294	324.027144	1045.247389	147.189491	-61.205718	1134.338803	393.460650
5022	50.21000	19.844573	938.014221	133.134117	37.139363	1484.463817	251.613243	31.065247	1577.953584	395.493681	93.739735	937.737316	134.221438	-54.050845	938.291175	132.046759	114.841657	528.671849	300.306553	-96.766874	514.552260	158.957781	113.799588	181.774507	146.834009	-101.760989	229.429035	-137.715272	110.317978	145.678760	106.862108	-95.378933	217.168840	-190.765619	114.419421	101.904977	296.125508	-125.022069	76.893759	-60.528380	185.797001	1440.730502	168.269350	-132.292373	1447.322683	229.665697	260.782637	1238.185682	-22.043981	-216.058934	1174.162856	200.937864	323.542483	1047.302960	150.897110	-60.734133	1135.578170	391.013751
5023	50.22000	22.293678	938.277128	132.715719	40.065970	1484.725317	251.998827	33.798983	1578.113443	395.868484	96.166055	938.032622	133.827812	-51.578886	938.521664	131.603597	116.743408	528.978983	298.838738	-95.931526	515.739576	160.612703	115.814904	176.620003	150.559231	-102.074821	232.544354	-138.134576	112.411906	139.175506	110.846304	-95.617430	220.907302	-191.364538	116.158059	99.376768	304.345882	-126.493511	78.560956	-62.670236	189.062350	1440.453120	169.465776	-129.229207	1448.392113	229.524940	263.796656	1236.931443	-18.621497	-214.321841	1176.820509	198.651434	323.057822	1049.358531	154.604729	-60.262549	1136.817537	388.566852
5024	50.23000	24.742782	938.540034	132.297321	42.992577	1484.986817	252.384412	36.532719	1578.273302	396.243287	98.592375	938.327928	133.434186	-49.106927	938.752153	131.160435	118.645159	529.286117	297.370924	-95.096178	516.926892	162.267625	117.830220	171.465499	154.284453	-102.388654	235.659672	-138.553880	114.505834	132.672253	114.830499	-95.855928	224.645764	-191.963456	117.896697	96.848558	312.566257	-127.964953	80.228154	-64.812092	192.327698	1440.175737	170.662202	-126.166040	1449.461544	229.384184	266.810675	1235.677204	-15.199012	-212.584748	1179.478163	196.365005	322.573161	1051.414103	158.312349	-59.790964	1138.056905	386.119954
5025	50.24000	27.191887	938.802941	131.878923	45.919184	1485.248316	252.769997	39.266456	1578.433161	396.618090	101.018695	938.623234	133.040561	-46.634968	938.982642	130.717274	120.546910	529.593251	295.903109	-94.260831	518.114208	163.922546	119.845535	166.310995	158.009675	-102.702486	238.774990	-138.973184	116.599762	126.168999	118.814694	-96.094425	228.384226	-192.562375	119.635334	94.320348	320.786631	-129.436395	81.895351	-66.953947	195.593047	1439.898355	171.858628	-123.102873	1450.530974	229.243427	269.824694	1234.422965	-11.776527	-210.847654	1182.135816	194.078575	322.088500	1053.469674	162.019968	-59.319380	1139.296272	383.673055
5026	50.25000	29.640992	939.065848	131.460525	48.845791	1485.509816	253.155581	42.000192	1578.593021	396.992893	103.445016	938.918540	132.646935	-44.163010	939.213131	130.274112	122.448661	529.900385	294.435294	-93.425483	519.301524	165.577468	121.860851	161.156491	161.734897	-103.016319	241.890308	-139.392488	118.693690	119.665745	122.798890	-96.332923	232.122688	-193.161294	121.373972	91.792138	329.007006	-130.907837	83.562549	-69.095803	198.858395	1439.620973	173.055054	-120.039706	1451.600405	229.102671	272.838713	1233.168726	-8.354043	-209.110561	1184.793469	191.792145	321.603839	1055.525245	165.727587	-58.847796	1140.535639	381.226156
